<svg width="40" height="39" viewBox="0 0 40 39" fill="none" xmlns="http://www.w3.org/2000/svg">
<path d="M10.4479 12.5169C11.9276 12.5169 13.1272 11.3337 13.1272 9.87419C13.1272 8.41464 11.9276 7.23145 10.4479 7.23145C8.96812 7.23145 7.76855 8.41464 7.76855 9.87419C7.76855 11.3337 8.96812 12.5169 10.4479 12.5169Z" fill="#0F0F0F"/>
<path d="M7.76855 16.0402C7.76855 15.0671 8.56828 14.2783 9.55476 14.2783L11.341 14.2783C12.3275 14.2783 13.1272 15.0671 13.1272 16.0402L13.1272 30.1348C13.1272 31.1079 12.3275 31.8966 11.341 31.8966L9.55476 31.8966C8.56828 31.8966 7.76855 31.1079 7.76855 30.1348L7.76855 16.0402Z" fill="#0F0F0F"/>
<path d="M18.4857 31.8966L20.2719 31.8966C21.2584 31.8966 22.0581 31.1079 22.0581 30.1348L22.0581 22.2066C22.0581 19.5638 27.4167 17.802 27.4167 21.3256L27.4167 30.1355C27.4167 31.1086 28.2164 31.8966 29.2029 31.8966L30.9891 31.8966C31.9757 31.8966 32.7753 31.1079 32.7753 30.1348L32.7753 19.5638C32.7753 16.0402 30.096 14.2783 26.5236 14.2783C22.9512 14.2783 22.0581 16.9211 22.0581 16.9211L22.0581 16.0402C22.0581 15.0671 21.2584 14.2783 20.2719 14.2783L18.4857 14.2783C17.4991 14.2783 16.6995 15.0671 16.6995 16.0402L16.6995 30.1348C16.6995 31.1079 17.4991 31.8966 18.4857 31.8966Z" fill="#0F0F0F"/>
<path fill-rule="evenodd" clip-rule="evenodd" d="M34.5615 0.184082C37.5211 0.184082 39.9201 2.55049 39.9201 5.46958L39.9201 33.6589C39.9201 36.5781 37.5211 38.9444 34.5615 38.9444L5.98216 38.9444C3.02268 38.9444 0.623535 36.5781 0.623535 33.6589L0.623535 5.46958C0.623535 2.55049 3.02268 0.184082 5.98216 0.184082L34.5615 0.184082ZM34.5615 3.70775C35.548 3.70775 36.3477 4.49655 36.3477 5.46958L36.3477 33.6589C36.3477 34.6319 35.548 35.4207 34.5615 35.4207L5.98216 35.4207C4.99567 35.4207 4.19595 34.6319 4.19595 33.6589L4.19595 5.46958C4.19595 4.49655 4.99567 3.70775 5.98216 3.70775L34.5615 3.70775Z" fill="#0F0F0F"/>
</svg>
