<?xml version="1.0" encoding="UTF-8" standalone="no"?>
<svg
   version="1.1"
   viewBox="0 0 402.5 243.1"
   id="svg10"
   sodipodi:docname="logo_cosmica_cria_grafite_arrumada.svg"
   inkscape:version="1.3.2 (091e20e, 2023-11-25, custom)"
   xmlns:inkscape="http://www.inkscape.org/namespaces/inkscape"
   xmlns:sodipodi="http://sodipodi.sourceforge.net/DTD/sodipodi-0.dtd"
   xmlns="http://www.w3.org/2000/svg"
   xmlns:svg="http://www.w3.org/2000/svg">
  <sodipodi:namedview
     id="namedview10"
     pagecolor="#ffffff"
     bordercolor="#000000"
     borderopacity="0.25"
     inkscape:showpageshadow="2"
     inkscape:pageopacity="0.0"
     inkscape:pagecheckerboard="0"
     inkscape:deskcolor="#d1d1d1"
     inkscape:zoom="6.0621118"
     inkscape:cx="266.73873"
     inkscape:cy="168.83555"
     inkscape:window-width="1920"
     inkscape:window-height="1057"
     inkscape:window-x="-8"
     inkscape:window-y="-8"
     inkscape:window-maximized="1"
     inkscape:current-layer="svg10" />
  <defs
     id="defs1">
    <style
       id="style1">
      .cls-1 {
        fill: #383937;
      }
    </style>
  </defs>
  <!-- Generator: Adobe Illustrator 28.7.1, SVG Export Plug-In . SVG Version: 1.2.0 Build 142)  -->
  <g
     id="g10">
    <g
       id="logo_grafite">
      <g
         id="g9">
        <path
           class="cls-1"
           d="M110.6,136.1c-11.7,0-18.9,6.1-25.9,12-3.7,3.2-7.6,6.4-12.3,9-5.6,3.1-12.1,2.7-16.6-1-3.3-2.7-5-6.7-4.7-10.6.3-3.2,2-5.8,4.7-7.4,1.8-1,4-1.3,5.8-.6,1,.4,2.3,1.2,2.9,3,.9,2.7,3.8,4.1,6.5,3.2,2.7-.9,4.1-3.8,3.2-6.5-1.5-4.3-4.7-7.6-9-9.2-4.6-1.7-10.1-1.3-14.5,1.3-5.7,3.2-9.2,8.9-9.8,15.4-.6,7.2,2.5,14.4,8.3,19.3,7.7,6.5,18.8,7.3,28.1,2.2,5.6-3.1,10.1-6.9,14-10.2,6.6-5.6,11.4-9.6,19.3-9.6s15.3,1.1,15.3,15.3-6.1,15.3-13.9,15.3-12-4.2-12-10.9.1-2.2.4-3.2c.7-2.7-1-5.5-3.7-6.2-2.7-.7-5.5,1-6.2,3.7-.5,1.8-.7,3.7-.7,5.7,0,11.6,10,21.1,22.3,21.1h0c13.5,0,24.1-11.2,24.1-25.6s-12.8-25.6-25.6-25.6Z"
           id="path1" />
        <path
           class="cls-1"
           d="M162.6,159.4c-1.9-1.7-3.9-3.4-6-5.4-2-2-2.1-5-.9-6.6.8-1.2,2.2-1.9,3.6-1.8,1.5,0,2.8,1,3.7,2.7,1.4,2.4,4.5,3.3,7,1.9,2.5-1.4,3.3-4.5,1.9-7-2.7-4.7-7.1-7.6-12.1-7.8-4.8-.3-9.6,2.1-12.5,6.1-4.1,5.8-3.2,14.5,2.1,19.8,2.4,2.3,4.6,4.3,6.6,5.9,5.2,4.5,7.5,6.6,8.2,10.9.4,2.7.1,7.5-6.3,8.8-2.5.5-4.3-.3-5.4-1.1-1.6-1.1-2.7-2.7-3-4.5-.3-1.5,0-3.2.6-4.8,1.1-2.6,0-5.6-2.7-6.7-2.6-1.1-5.6,0-6.7,2.7-1.5,3.4-1.9,7.1-1.3,10.6.8,4.5,3.4,8.6,7.3,11.2,2.9,2,6.3,3,9.7,3h0c1.2,0,2.3-.1,3.5-.4,11.7-2.4,15.6-11.9,14.4-20.4-1.2-8.2-6.3-12.5-11.6-17.1Z"
           id="path2" />
        <path
           class="cls-1"
           d="M142,136.1c0-3.2-2.6-5.8-5.8-5.8s-5.8,2.6-5.8,5.8,2.6,5.8,5.8,5.8,5.8-2.6,5.8-5.8Z"
           id="path3" />
        <path
           class="cls-1"
           d="M356.2,151.4c-2.7.2-4.3-.3-5.2-3.5-.3-1-.5-2.2-.8-3.5-1.4-7.5-4.5-23-21.5-23s-18.3,11-21.7,19.9c-2.5,6.5-4.8,12.6-10.2,16.2-4.3,2.9-10.5,2.9-14.8,0-3.2-2.1-5.2-6.3-5.1-10.3,0-2.3.9-5.6,4.6-7.8.8-.5,4.6-1.3,6.7,1.8,1.6,2.3,4.8,2.9,7.1,1.3,2.3-1.6,2.9-4.8,1.3-7.1-5.4-7.8-15.2-7.8-20.3-4.8-5.9,3.5-9.4,9.4-9.6,16.3-.2,7.5,3.5,15,9.6,19.1,3.8,2.6,8.4,3.9,13.1,3.9h0c4.6,0,9.2-1.3,13.1-3.9,8.1-5.4,11.3-13.7,14.1-21,3.7-9.7,5.7-13.4,12.2-13.4s9.5,4.5,11.5,14.7c.3,1.6.6,3.1,1,4.3,1,3.5,4.6,11.7,15.7,11,2.8-.2,4.9-2.6,4.8-5.4-.2-2.8-2.8-4.9-5.4-4.8Z"
           id="path4" />
        <path
           class="cls-1"
           d="m 255.5,125.9 v 0 c -2.8,0 -5.1,2.3 -5.1,5.1 0.1,27 -2.7,33.8 -4.3,35.5 -0.5,0.6 -1,0 -1.2,-0.4 -1,-1.9 -1.8,-6.3 -2.3,-8.8 -1.4,-7.5 -3.3,-17.8 -12.7,-17.8 -9.4,0 -11.3,10.9 -12.7,19.6 -0.4,2.6 -1.1,6.9 -2,9.4 -0.2,0.6 -1.2,0.6 -1.4,0 -0.8,-2.1 -1.4,-5.6 -1.8,-7.8 -1.4,-7.5 -3.3,-17.8 -12.7,-17.8 -9.4,0 -11.6,9.5 -13.2,17.2 -1.2,5.7 -2.4,11.6 -5.8,15 -2,2 -2,5.2 0,7.2 1,1 2.3,1.5 3.6,1.5 v 0 c 1.3,0 2.6,-0.5 3.6,-1.5 5.6,-5.6 7.3,-13.7 8.6,-20.2 0.4,-2.2 1.2,-5.8 2.1,-7.8 0.3,-0.6 1.4,-0.6 1.7,0 0.9,2.1 1.6,5.9 2,8.3 1.4,7.5 3.3,17.8 12.7,17.8 9.4,0 11.3,-10.9 12.7,-19.6 0.4,-2.5 1.1,-6.6 2,-9.1 0.2,-0.7 1.3,-0.7 1.6,0 0.7,2.2 1.4,5.5 1.8,7.6 1.4,7.5 3.57252,20.04701 12.7,17.8 4.76195,-1.1723 7.51085,-2.27855 8.36806,-3.01132 C 255.14507,172.91157 260.9,162.1 260.8,131 c 0,-2.8 -2.3,-5.1 -5.1,-5.1 z"
           id="path5"
           sodipodi:nodetypes="csccccsccccscsssssccccsccccsscsc" />
        <path
           class="cls-1"
           d="M273.2,57.7c3.2,0,5.8-2.6,5.8-5.8s-2.6-5.8-5.8-5.8-5.8,2.6-5.8,5.8,2.6,5.8,5.8,5.8Z"
           id="path6" />
        <path
           class="cls-1"
           d="M255.5,111.6c-3.2,0-5.8,2.6-5.8,5.8s2.6,5.8,5.8,5.8,5.8-2.6,5.8-5.8-2.6-5.8-5.8-5.8Z"
           id="path7" />
        <path
           class="cls-1"
           d="M327.9,143.4c-3.2,0-5.8,2.6-5.8,5.8s2.6,5.8,5.8,5.8,5.8-2.6,5.8-5.8-2.6-5.8-5.8-5.8Z"
           id="path8" />
        <path
           class="cls-1"
           d="M244.9,46.1c-8,0-14.7,4.8-17,12.1-.9,2.7.6,5.6,3.3,6.4,2.7.9,5.6-.6,6.4-3.3,1.5-4.5,5.6-5,7.3-5,3.6,0,6.2,1.6,7.5,4.9,1.8,4.2,1,11-3.8,15.8-5.6,5.6-14.9,5.4-22.7-.5-4.4-3.4-8.4-6.8-12.3-10.1-12.2-10.5-23.7-20.3-42.3-20.3s-34.5,11.9-34.5,34.5,12.6,34.5,33.6,34.5h0c16.2,0,27.5-10.8,27.5-26.2s-2.8-13.2-7.6-17.6c-3.5-3.3-9.6-7.1-19.3-6.5-4.1.2-7.8,1.7-11.1,4.6-2.1,1.8-2.4,5.1-.6,7.2s5.1,2.4,7.2.6c1.6-1.4,3.2-2,5.1-2.1,4.9-.2,8.8,1,11.7,3.7,2.7,2.6,4.4,6.4,4.4,10.2,0,9.9-6.6,16-17.3,16s-23.3-8.5-23.3-24.3,15.3-24.3,24.3-24.3c14.8,0,24,7.9,35.6,17.9,4,3.4,8.1,7,12.8,10.5,11.9,9,26.8,8.9,36.1-.5,7.1-7.1,9.6-18.2,6-27-2.9-7-9.2-11.2-17-11.2Z"
           id="path9" />
      </g>
    </g>
  </g>
</svg>
