<svg width="40" height="39" viewBox="0 0 40 39" fill="none" xmlns="http://www.w3.org/2000/svg">
<path d="M12.1821 9.87419C12.1821 10.7996 11.4179 11.5718 10.4479 11.5718C9.47781 11.5718 8.71368 10.7996 8.71368 9.87419C8.71368 8.94882 9.47781 8.17657 10.4479 8.17657C11.4179 8.17657 12.1821 8.94882 12.1821 9.87419Z" fill="white" stroke="white" stroke-width="1.89024"/>
<path d="M8.71368 16.0402C8.71368 15.6013 9.07797 15.2234 9.55476 15.2234L11.341 15.2234C11.8178 15.2234 12.1821 15.6013 12.1821 16.0402L12.1821 30.1348C12.1821 30.5737 11.8178 30.9515 11.341 30.9515L9.55476 30.9515C9.07795 30.9515 8.71368 30.5737 8.71368 30.1348L8.71368 16.0402Z" fill="white" stroke="white" stroke-width="1.89024"/>
<path d="M22.5312 17.0827L22.5359 17.0702C22.5408 17.0574 22.5494 17.0358 22.562 17.0068C22.5873 16.9486 22.6286 16.8609 22.6891 16.7535C22.8104 16.5382 23.0067 16.2473 23.3023 15.9557C23.8841 15.3818 24.8764 14.7783 26.5236 14.7783C28.235 14.7783 29.6768 15.2011 30.6794 15.9922C31.6663 16.7709 32.2753 17.9427 32.2753 19.5638L32.2753 30.1348C32.2753 30.8253 31.706 31.3966 30.9891 31.3966L29.2029 31.3966C28.4858 31.3966 27.9167 30.8257 27.9167 30.1355L27.9167 21.3256C27.9167 20.3042 27.5168 19.5676 26.8288 19.1717C26.1754 18.7958 25.3604 18.7851 24.6177 18.9682C23.8669 19.1534 23.1179 19.5524 22.5493 20.0976C21.9815 20.6421 21.5581 21.3699 21.5581 22.2066L21.5581 30.1348C21.5581 30.8253 20.9888 31.3966 20.2719 31.3966L18.4857 31.3966C17.7688 31.3966 17.1995 30.8253 17.1995 30.1348L17.1995 16.0402C17.1995 15.3497 17.7688 14.7783 18.4857 14.7783L20.2719 14.7783C20.9888 14.7783 21.5581 15.3497 21.5581 16.0402L21.5581 16.9211L22.5292 17.0807C22.5316 17.0816 22.5316 17.0816 22.5316 17.0817L22.5314 17.0822L22.5312 17.0827ZM22.5312 17.0827L22.5312 17.0829L22.5309 17.0838C22.5308 17.084 22.5309 17.0837 22.5312 17.0827Z" fill="white" stroke="white"/>
<path d="M34.5615 1.1292C37.0114 1.1292 38.975 3.08465 38.975 5.46958L38.975 33.6589C38.975 36.0439 37.0114 37.9993 34.5615 37.9993L5.98216 37.9993C3.53236 37.9993 1.56866 36.0439 1.56866 33.6589L1.56866 5.46958C1.56866 3.08466 3.53237 1.1292 5.98216 1.1292L34.5615 1.1292ZM37.2928 5.46958C37.2928 3.96239 36.0577 2.76262 34.5615 2.76262L5.98216 2.76262C4.48598 2.76262 3.25083 3.96238 3.25083 5.46958L3.25083 33.6589C3.25083 35.1661 4.48599 36.3658 5.98216 36.3658L34.5615 36.3658C36.0577 36.3658 37.2928 35.1661 37.2928 33.6589L37.2928 5.46958Z" fill="black" stroke="white" stroke-width="1.89024"/>
</svg>
