<?xml version="1.0" encoding="UTF-8" standalone="no"?>
<svg
   version="1.1"
   x="0px"
   y="0px"
   viewBox="0 0 96 120"
   style="enable-background:new 0 0 96 96;"
   xml:space="preserve"
   id="svg2"
   sodipodi:docname="noun-textile-recycling-6328052 (1).svg"
   inkscape:version="1.3.2 (091e20e, 2023-11-25, custom)"
   xmlns:inkscape="http://www.inkscape.org/namespaces/inkscape"
   xmlns:sodipodi="http://sodipodi.sourceforge.net/DTD/sodipodi-0.dtd"
   xmlns="http://www.w3.org/2000/svg"
   xmlns:svg="http://www.w3.org/2000/svg"><defs
     id="defs2" /><sodipodi:namedview
     id="namedview2"
     pagecolor="#ffffff"
     bordercolor="#000000"
     borderopacity="0.25"
     inkscape:showpageshadow="2"
     inkscape:pageopacity="0.0"
     inkscape:pagecheckerboard="0"
     inkscape:deskcolor="#d1d1d1"
     inkscape:zoom="7.175"
     inkscape:cx="47.944251"
     inkscape:cy="60"
     inkscape:window-width="1920"
     inkscape:window-height="1057"
     inkscape:window-x="1912"
     inkscape:window-y="-8"
     inkscape:window-maximized="1"
     inkscape:current-layer="svg2" /><path
     d="m 70.039492,100.12881 c 0.325,0.649 0.062,1.439 -0.588,1.763 -8.839,4.439 -18.795,5.886 -28.359,4.34 -10.874,-1.758 -20.645,-7.257001 -27.827,-15.586001 v 4.526 c 0,0.729 -0.591,1.32 -1.32,1.32 -0.729001,0 -1.320001,-0.591 -1.320001,-1.32 v -8.281 c 0,-0.729 0.591,-1.32 1.320001,-1.32 h 8.281 c 0.729,0 1.32,0.591 1.32,1.32 0,0.729 -0.591,1.32 -1.32,1.32 h -5.574 c 6.796,8.222 16.303,13.717001 26.852,15.422001 9.033,1.46 18.431,0.096 26.771,-4.092001 0.65,-0.324 1.439,-0.061 1.764,0.588001 z m -17.606,-19.619001 c 0,0.519 0.423,0.943 0.943,0.943 h 7.441 c 0.42,0 0.776,-0.263 0.901,-0.664 l 3.566,-11.533 3.566,11.533 c 0.124,0.401 0.481,0.664 0.901,0.664 h 7.441 c 0.519,0 0.943,-0.423 0.943,-0.943 v -6.916 h -6.238 c -0.578,0 -1.088,-0.382 -1.258,-0.933 l -2.299,-7.436 h -6.113 l -2.299,7.436 c -0.174,0.566 -0.695,0.933 -1.258,0.933 h -6.237 z m -33.121,-36.738 1.725,4.508 c 0.189,0.494 0.739,0.735 1.23,0.538 l 4.049,-1.617 v 18.158 c 0,0.519 0.423,0.943 0.943,0.943 h 17.14 c 0.519,0 0.943,-0.423 0.943,-0.943 v -18.158 l 4.049,1.617 c 0.491,0.196 1.041,-0.044 1.23,-0.538 l 1.725,-4.508 c 0.184,-0.48 -0.053,-1.022 -0.531,-1.212 l -6.474,-2.586 -4.577,-0.74 c -0.492,-0.08 -0.959,0.235 -1.07,0.721 -0.402,1.764 -1.98,3.081 -3.866,3.081 -1.886,0 -3.464,-1.317 -3.866,-3.081 -0.111,-0.486 -0.578,-0.801 -1.07,-0.721 l -4.577,0.74 -6.473,2.586 c -0.476,0.191 -0.713,0.732 -0.53,1.212 z m 58.822,16.199 c 0,-0.519 -0.423,-0.943 -0.943,-0.943 h -23.815 c -0.519,0 -0.943,0.423 -0.943,0.943 v 2.615 h 25.701 z m 0,5.254 h -7.039 l 1.771,5.73 h 5.267 v -5.73 z m -25.701,0 v 5.73 h 5.267 l 1.771,-5.73 z m -23.595,-44.236 c 8.34,-4.188 17.739,-5.552 26.771,-4.092 10.531,1.702 20.066,7.199 26.852,15.422 h -5.573 c -0.729,0 -1.32,0.591 -1.32,1.32 0,0.729 0.591,1.32 1.32,1.32 h 8.281 c 0.729,0 1.32,-0.591 1.32,-1.32 v -8.281 c 0,-0.729 -0.591,-1.32 -1.32,-1.32 -0.729,0 -1.32,0.591 -1.32,1.32 v 4.527 c -7.252,-8.349 -16.894,-13.819 -27.827,-15.587 -9.564,-1.546001 -19.52,-0.099 -28.359,4.34 -0.649,0.325 -0.912,1.114 -0.588,1.763 0.325,0.649 1.114,0.912 1.763,0.588 z m 65.686,46.741 c 1.546,-9.564 0.099,-19.52 -4.34,-28.359 -0.325,-0.649 -1.114,-0.912 -1.763,-0.588 -0.649,0.325 -0.912,1.114 -0.588,1.763 4.188,8.34 5.552,17.739 4.092,26.771 -1.702,10.531 -7.205,20.072 -15.422,26.852 v -5.573 c 0,-0.729 -0.591,-1.32 -1.32,-1.32 -0.729,0 -1.32,0.591 -1.32,1.32 v 8.281 c 0,0.729 0.591,1.32 1.32,1.32 h 8.281 c 0.729,0 1.32,-0.591 1.32,-1.32 0,-0.729 -0.591,-1.32 -1.32,-1.32 h -4.527 c 8.347,-7.26 13.815,-16.87 15.587,-27.827 z m -89.3350007,-14.518 c 1.705,-10.548 7.2000007,-20.057 15.4220007,-26.852 v 5.574 c 0,0.729 0.591,1.32 1.32,1.32 0.729,0 1.32,-0.591 1.32,-1.32 v -8.281 c 0,-0.729 -0.591,-1.32 -1.32,-1.32 h -8.281 c -0.729,0 -1.32,0.591 -1.32,1.32 0,0.729 0.591,1.32 1.32,1.32 h 4.526 c -8.3290007,7.183 -13.8280007,16.952 -15.5860007,27.827 -1.546,9.564 -0.099,19.52 4.34,28.359 0.325,0.649 1.114,0.912 1.763,0.588 0.649,-0.325 0.912,-1.114 0.588,-1.763 -4.189,-8.34 -5.553,-17.739 -4.092,-26.772 z"
     id="path1" /></svg>
